<svg width="32" height="32" viewBox="0 0 32 32" fill="none" xmlns="http://www.w3.org/2000/svg">
<path fill-rule="evenodd" clip-rule="evenodd" d="M31 16C31 24.2843 24.2843 31 16 31C7.71573 31 1 24.2843 1 16C1 7.71573 7.71573 1 16 1C24.2843 1 31 7.71573 31 16ZM32 16C32 24.8366 24.8366 32 16 32C7.16344 32 0 24.8366 0 16C0 7.16344 7.16344 0 16 0C24.8366 0 32 7.16344 32 16ZM17.2962 12.2865C17.3372 12.3785 17.3963 12.4613 17.47 12.53L20.19 15.25H10.5C10.3011 15.25 10.1103 15.329 9.96966 15.4697C9.82901 15.6103 9.74999 15.8011 9.74999 16C9.74999 16.1989 9.82901 16.3897 9.96966 16.5303C10.1103 16.671 10.3011 16.75 10.5 16.75H20.19L17.47 19.47C17.3963 19.5387 17.3372 19.6215 17.2962 19.7135C17.2552 19.8055 17.2332 19.9048 17.2314 20.0055C17.2296 20.1062 17.2481 20.2062 17.2859 20.2996C17.3236 20.393 17.3797 20.4778 17.451 20.549C17.5222 20.6203 17.607 20.6764 17.7004 20.7141C17.7938 20.7518 17.8938 20.7704 17.9945 20.7686C18.0952 20.7668 18.1945 20.7448 18.2865 20.7038C18.3785 20.6628 18.4613 20.6037 18.53 20.53L22.53 16.53C22.6704 16.3894 22.7493 16.1988 22.7493 16C22.7493 15.8013 22.6704 15.6106 22.53 15.47L18.53 11.47C18.4613 11.3963 18.3785 11.3372 18.2865 11.2962C18.1945 11.2552 18.0952 11.2332 17.9945 11.2314C17.8938 11.2296 17.7938 11.2482 17.7004 11.2859C17.607 11.3236 17.5222 11.3797 17.451 11.451C17.3797 11.5222 17.3236 11.607 17.2859 11.7004C17.2481 11.7938 17.2296 11.8938 17.2314 11.9945C17.2332 12.0952 17.2552 12.1945 17.2962 12.2865Z" fill="black"/>
</svg>
