<svg width="64" height="32" viewBox="0 0 64 32" fill="none" xmlns="http://www.w3.org/2000/svg">
<path fill-rule="evenodd" clip-rule="evenodd" d="M63 16C63 24.2843 56.2843 31 48 31C39.9672 31 33.4092 24.6858 33.0184 16.75H52.19L49.47 19.47C49.3963 19.5387 49.3372 19.6215 49.2962 19.7135C49.2552 19.8055 49.2332 19.9048 49.2314 20.0055C49.2296 20.1062 49.2482 20.2062 49.2859 20.2996C49.3236 20.393 49.3797 20.4778 49.451 20.549C49.5222 20.6203 49.607 20.6764 49.7004 20.7141C49.7938 20.7518 49.8938 20.7704 49.9945 20.7686C50.0952 20.7668 50.1945 20.7448 50.2865 20.7038C50.3785 20.6628 50.4613 20.6037 50.53 20.53L54.53 16.53C54.6705 16.3894 54.7493 16.1988 54.7493 16C54.7493 15.8013 54.6705 15.6106 54.53 15.47L50.53 11.47C50.4613 11.3963 50.3785 11.3372 50.2865 11.2962C50.1945 11.2552 50.0952 11.2332 49.9945 11.2314C49.8938 11.2296 49.7938 11.2482 49.7004 11.2859C49.607 11.3236 49.5222 11.3797 49.451 11.451C49.3797 11.5222 49.3236 11.607 49.2859 11.7004C49.2482 11.7938 49.2296 11.8938 49.2314 11.9945C49.2332 12.0952 49.2552 12.1945 49.2962 12.2865C49.3372 12.3785 49.3963 12.4613 49.47 12.53L52.19 15.25H33.0184C33.4092 7.31417 39.9672 1 48 1C56.2843 1 63 7.71573 63 16ZM32.0173 15.25C32.409 6.76165 39.4149 0 48 0C56.8366 0 64 7.16344 64 16C64 24.8366 56.8366 32 48 32C39.4149 32 32.409 25.2384 32.0173 16.75L1.5 16.75C1.30109 16.75 1.11032 16.671 0.969669 16.5303C0.829017 16.3897 0.75 16.1989 0.75 16C0.75 15.8011 0.829017 15.6103 0.969669 15.4697C1.11032 15.329 1.30109 15.25 1.5 15.25H32.0173Z" fill="black"/>
</svg>
